# xmcd
#
# Track frame offsets:
#	150
#	11825
#	34650
#	39775
#	57825
#	71225
#	88237
#	104012
#	116962
#	125025
#	139525
#	156450
#	168900
#	183387
#	195062
#	206050
#	214475
#	230000
#	261012
#	268425
#
# Disc length: 3688 seconds
#
# Revision: 1
# Processed by: cddbd v1.5PL3 Copyright (c) Steve Scherf et al.
# Submitted via: EasyCDDAExtractor 6.2.0.3
#
DISCID=350e6614
DTITLE=Tex Morton - 20 Golden Greats Tex Morton
DYEAR=1900
DGENRE=Country
TTITLE0=The Goondiwindi grey
TTITLE1=Abdulla bul-Bul Ameer
TTITLE2=The Great Australian Adjective
TTITLE3=Frankie and Johnny
TTITLE4=Mick doolies Pants
TTITLE5=In Eleven More Months
TTITLE6=Little Brown Jug
TTITLE7=Holy Dan
TTITLE8=Bullocky Bill
TTITLE9=the Stockmans Last Bed
TTITLE10=Ther Ballad of Ned Kelly
TTITLE11=The Cat Came Back
TTITLE12=Glass on the Bar
TTITLE13=Young Pat Malone
TTITLE14=Wrap me up with my Stock Whip and Blanket
TTITLE15=Sleepy Hollow
TTITLE16=The Man on the Flying trapeze
TTITLE17=The Shooting of Dan McGrew
TTITLE18=They Cut Down the Old Pine Tree
TTITLE19=You andMy Old Guitar
EXTD=
EXTT0=
EXTT1=
EXTT2=
EXTT3=
EXTT4=
EXTT5=
EXTT6=
EXTT7=
EXTT8=
EXTT9=
EXTT10=
EXTT11=
EXTT12=
EXTT13=
EXTT14=
EXTT15=
EXTT16=
EXTT17=
EXTT18=
EXTT19=
PLAYORDER=
